# xmcd
#
# Track frame offsets:
#	150
#	12115
#	27039
#	39803
#	51278
#	63727
#	74315
#	89126
#	100478
#	111029
#	122343
#	133996
#	145300
#	157381
#	170572
#	182372
#	193639
#	206330
#
# Disc length: 2857 seconds
#
# Revision: 0
# Processed by: cddbd v1.5.2PL0 Copyright (c) Steve Scherf et al.
# Submitted via: EasyCDDAExtractor 2011.0.0.0
#
DISCID=030b2712
DTITLE=Tom Jones - Classic Country
DYEAR=1999
DGENRE=country
TTITLE0=The Most Beautiful Girl In The World
TTITLE1=I Can't Stop Loving You
TTITLE2=Behind Closed Doors
TTITLE3=Green Green Grass Of Home
TTITLE4=Let Your Love Flow
TTITLE5=Rose Coloured Glasses
TTITLE6=Help Me Make It Through The Night
TTITLE7=I'm So Lonesome I Could Cry
TTITLE8=Please Release Me
TTITLE9=Four Walls
TTITLE10=You Win Again
TTITLE11=I'm Leaving It All Up To You
TTITLE12=Funny How Time Slips Away
TTITLE13=He Stopped Loving Her Today
TTITLE14=Make The World Go Away
TTITLE15=Streets Of Laredo
TTITLE16=Born To Lose
TTITLE17=I Love A Rainy Night
EXTD=
EXTT0=
EXTT1=
EXTT2=
EXTT3=
EXTT4=
EXTT5=
EXTT6=
EXTT7=
EXTT8=
EXTT9=
EXTT10=
EXTT11=
EXTT12=
EXTT13=
EXTT14=
EXTT15=
EXTT16=
EXTT17=
PLAYORDER=
